<?xml version="1.0" encoding="utf-8"?>
<!-- Generator: Adobe Illustrator 15.0.0, SVG Export Plug-In . SVG Version: 6.00 Build 0)  -->
<!DOCTYPE svg PUBLIC "-//W3C//DTD SVG 1.1//EN" "http://www.w3.org/Graphics/SVG/1.1/DTD/svg11.dtd">
<svg version="1.1" id="Layer_1" xmlns="http://www.w3.org/2000/svg" xmlns:xlink="http://www.w3.org/1999/xlink" x="0px" y="0px"
	 width="160px" height="110px" viewBox="0 0 160 110" enable-background="new 0 0 160 110" xml:space="preserve">
<path fill="#303030" d="M3.812,105.924v-4.891h1.226v4.881c0,1.139,0.619,1.857,1.768,1.857c1.138,0,1.768-0.73,1.768-1.867v-4.871
	h1.215v4.881c0,1.756-1.105,2.992-2.982,2.992C4.873,108.906,3.812,107.715,3.812,105.924"/>
<polygon fill="#303030" points="12.48,101.033 13.716,101.033 17.505,106.775 17.505,101.033 18.708,101.033 18.708,108.762 
	17.494,108.762 13.695,103.053 13.695,108.762 12.48,108.762 "/>
<path fill="#303030" d="M21.447,101.033h1.821c2.585,0,4.12,1.447,4.12,3.865c0,2.52-1.568,3.863-4.12,3.863h-1.821V101.033z
	 M23.389,107.691c1.657,0,2.728-0.949,2.728-2.793c0-1.775-1.07-2.783-2.728-2.783h-0.717v5.576H23.389z"/>
<polygon fill="#303030" points="29.706,101.033 33.527,101.033 33.527,102.137 30.932,102.137 30.932,104.291 33.184,104.291 
	33.184,105.385 30.932,105.385 30.932,107.66 33.637,107.66 33.637,108.762 29.706,108.762 "/>
<path fill="#303030" d="M36.11,101.033h2.075c1.657,0,2.584,0.982,2.584,2.275c0,0.895-0.474,1.666-1.258,1.986l1.878,3.467h-1.357
	l-1.625-3.188h-1.07v3.188H36.11V101.033z M38.164,104.523c0.773,0,1.337-0.432,1.337-1.215c0-0.719-0.44-1.203-1.337-1.203h-0.827
	v2.418H38.164z"/>
<polygon fill="#303030" points="48.742,102.137 46.799,102.137 46.799,101.033 51.912,101.033 51.912,102.137 49.969,102.137 
	49.969,108.762 48.742,108.762 "/>
<polygon fill="#303030" points="54.152,101.033 55.378,101.033 55.378,104.291 59.044,104.291 59.044,101.033 60.271,101.033 
	60.271,108.762 59.044,108.762 59.044,105.406 55.378,105.406 55.378,108.762 54.152,108.762 "/>
<polygon fill="#303030" points="63.008,101.033 66.83,101.033 66.83,102.137 64.234,102.137 64.234,104.291 66.487,104.291 
	66.487,105.385 64.234,105.385 64.234,107.66 66.939,107.66 66.939,108.762 63.008,108.762 "/>
<path fill="#303030" d="M73.851,106.678c0.211,0.551,0.663,1.094,1.514,1.094c0.694,0,1.159-0.387,1.159-1.039
	c0-1.635-3.479-1.271-3.479-3.754c0-1.205,0.894-2.09,2.319-2.09c1.468,0,2.098,1.039,2.285,1.582l-1.016,0.451
	c-0.177-0.377-0.531-0.906-1.292-0.906c-0.685,0-1.071,0.422-1.071,0.951c0,1.523,3.5,1.246,3.5,3.678
	c0,1.291-0.938,2.262-2.463,2.262c-1.578,0-2.263-1.057-2.496-1.744L73.851,106.678z"/>
<polygon fill="#303030" points="80.113,101.033 81.337,101.033 81.337,104.602 84.188,101.033 85.568,101.033 82.552,104.768 
	85.678,108.762 84.264,108.762 81.337,104.943 81.337,108.762 80.113,108.762 "/>
<rect x="87.753" y="101.033" fill="#303030" width="1.226" height="7.729"/>
<polygon fill="#303030" points="91.717,101.033 92.955,101.033 96.744,106.775 96.744,101.033 97.946,101.033 97.946,108.762 
	96.732,108.762 92.932,103.053 92.932,108.762 91.717,108.762 "/>
<path fill="#303030" d="M108.137,100.889c2.309,0,3.976,1.758,3.976,4.012c0,2.275-1.667,4.006-3.986,4.006
	c-2.309,0-3.976-1.721-3.976-4.006C104.151,102.635,105.831,100.889,108.137,100.889 M108.137,107.76
	c1.547,0,2.706-1.205,2.706-2.859c0-1.637-1.159-2.861-2.706-2.861c-1.557,0-2.705,1.225-2.705,2.861
	C105.432,106.555,106.581,107.76,108.137,107.76"/>
<polygon fill="#303030" points="114.431,101.033 118.241,101.033 118.241,102.137 115.656,102.137 115.656,104.379 117.921,104.379 
	117.921,105.473 115.656,105.473 115.656,108.762 114.431,108.762 "/>
<path fill="#303030" d="M125.175,106.678c0.209,0.551,0.662,1.094,1.513,1.094c0.695,0,1.159-0.387,1.159-1.039
	c0-1.635-3.479-1.271-3.479-3.754c0-1.205,0.895-2.09,2.319-2.09c1.468,0,2.099,1.039,2.285,1.582l-1.016,0.451
	c-0.177-0.377-0.53-0.906-1.291-0.906c-0.686,0-1.072,0.422-1.072,0.951c0,1.523,3.501,1.246,3.501,3.678
	c0,1.291-0.939,2.262-2.462,2.262c-1.58,0-2.265-1.057-2.497-1.744L125.175,106.678z"/>
<path fill="#303030" d="M131.435,101.033h2.242c1.457,0,2.475,0.928,2.475,2.32c0,1.369-1.061,2.352-2.464,2.352h-1.026v3.059
	h-1.227V101.033z M133.534,104.633c0.806,0,1.358-0.508,1.358-1.279c0-0.764-0.553-1.246-1.348-1.246h-0.883v2.525H133.534z"/>
<path fill="#303030" d="M139.154,106.512l-0.805,2.25h-1.238l2.817-7.729h1.269l2.816,7.729h-1.237l-0.794-2.25H139.154z
	 M140.568,102.359l-1.071,3.123h2.144L140.568,102.359z"/>
<rect x="146.066" y="101.033" fill="#303030" width="1.227" height="7.729"/>
<polygon fill="#303030" points="150.031,101.033 151.267,101.033 155.056,106.775 155.056,101.033 156.259,101.033 156.259,108.762 
	155.043,108.762 151.245,103.053 151.245,108.762 150.031,108.762 "/>
<polygon fill="#EF3936" points="130.537,33.752 130.537,8.037 104.81,8.037 79.092,33.752 79.092,59.473 79.092,85.195 
	104.81,85.195 130.537,85.195 156.257,59.473 156.257,33.752 "/>
<polygon fill="#303030" points="25.983,1.094 31.511,1.094 31.511,23.566 40.453,23.566 40.453,28.55 25.983,28.55 "/>
<path fill="#303030" d="M43.164,19.879V8.037h5.41v12.476c0,2.27,1.57,3.68,3.412,3.68c2.235,0,3.648-1.646,3.648-3.84V8.037h5.408
	v20.515h-5.291v-2.394c-0.863,1.405-2.823,2.896-5.491,2.896C44.417,29.054,43.164,24.234,43.164,19.879"/>
<path fill="#303030" d="M36.254,43.737c2.076,0,3.685,0.626,4.428,1.133v-1.333c0-1.804-1.331-3.021-3.724-3.021
	c-2.039,0-3.921,0.671-5.452,1.456l-2.04-3.688c1.846-1.255,4.943-2.431,8.081-2.431c6.59,0,8.55,3.448,8.55,8.037v12.981h-4.785
	l-0.353-1.332c-1.057,1.136-2.629,1.839-4.982,1.839c-4.157,0-7.688-2.542-7.688-6.861C28.29,46.482,31.468,43.737,36.254,43.737
	 M37.271,53.187c2.041,0,3.531-1.101,3.531-2.826c0-1.802-1.49-2.861-3.57-2.861c-2.076,0-3.528,1.172-3.528,2.861
	C33.704,52.044,35.232,53.187,37.271,53.187"/>
<path fill="#303030" d="M61.95,41.343c-4.039,0-5.529,2.509-5.529,6.583v8.943h-5.415V36.358h5.296v2.981
	c0.903-2.039,2.94-3.485,5.648-3.485V41.343z"/>
<path fill="#303030" d="M31.64,64.17c6.355,0,9.961,4.244,9.961,10.947c0,0.393,0,0.781-0.035,1.182H27.131
	C27.248,79.041,29.444,81,32.466,81c2.783,0,4.392-1.645,4.979-2.508l3.57,2.705c-0.785,1.453-3.531,4.51-8.63,4.51
	c-6.589,0-10.786-4.551-10.786-10.707C21.599,68.801,25.796,64.17,31.64,64.17 M36.115,72.764c-0.121-2.512-1.922-4.158-4.396-4.158
	c-2.548,0-4.196,1.805-4.43,4.158H36.115z"/>
<polygon fill="#303030" points="52.578,78.762 48.184,85.195 42.342,85.195 49.556,74.727 42.651,64.684 48.733,64.684 
	52.578,70.922 56.421,64.684 62.5,64.684 55.594,74.727 62.811,85.195 56.931,85.195 "/>
<path fill="#303030" d="M19.381,36.358v2.158c-0.588-0.789-2.67-2.662-6.12-2.662c-5.844,0-10.002,4.464-10.002,10.782
	c0,6.316,3.885,10.743,9.806,10.743c3.569,0,5.57-2.033,6.001-2.624v0.941v1.174h3.679h1.516h0.218v-2.59V36.358H19.381z
	 M13.966,52.602c-3.061,0-5.255-2.399-5.255-6.006c0-3.605,2.158-5.963,5.218-5.963c3.175,0,5.292,2.473,5.292,5.963
	C19.221,50.248,17.104,52.602,13.966,52.602"/>
<path fill="#303030" d="M19.896,58.926c-0.121,1.166-0.882,1.975-2.076,2.127c-2.362,0.301-5.307-2.027-8.995-1.561
	c-2.277,0.291-4.013,1.477-5.044,3.23l4.025,3.641c0.131-1.209,0.859-1.98,2.061-2.135c2.574-0.326,5.445,2.012,9.136,1.545
	c2.261-0.287,3.958-1.453,4.956-3.182L19.896,58.926z"/>
</svg>
